<?xml version="1.0" standalone="no"?>
<!DOCTYPE svg PUBLIC "-//W3C//DTD SVG 20010904//EN"
 "http://www.w3.org/TR/2001/REC-SVG-20010904/DTD/svg10.dtd">
<svg version="1.0" xmlns="http://www.w3.org/2000/svg"
 width="900.000000pt" height="300.000000pt" viewBox="0 0 900.000000 300.000000"
 preserveAspectRatio="xMidYMid meet">
<metadata>
Created by potrace 1.10, written by Peter Selinger 2001-2011
</metadata>
<g transform="translate(0.000000,300.000000) scale(0.100000,-0.100000)"
fill="#000000" stroke="none">
<path d="M7220 2031 c0 -5 -6 -16 -12 -23 -35 -38 -79 -113 -76 -131 6 -39 30
-29 94 39 48 52 64 75 62 94 -3 20 -9 26 -35 28 -18 2 -33 -1 -33 -7z"/>
<path d="M4445 2013 c-78 -20 -86 -24 -110 -59 -10 -16 -33 -39 -50 -50 l-30
-19 -3 -487 -2 -487 36 -27 c32 -25 38 -26 57 -14 44 27 347 48 456 31 73 -12
79 -15 113 -65 4 -6 39 -12 77 -14 70 -4 71 -4 108 33 31 31 47 39 102 47 100
16 400 -5 448 -30 31 -17 38 -15 72 19 l31 31 0 476 0 477 -26 20 c-36 28 -56
49 -77 79 -13 19 -27 26 -50 26 -18 1 -50 7 -72 15 -58 21 -398 21 -448 0 -20
-8 -55 -15 -77 -15 -22 0 -57 7 -77 15 -49 21 -391 19 -478 -2z m490 -60 l30
-9 3 -452 c3 -516 14 -465 -95 -437 -76 20 -279 20 -353 0 -63 -17 -137 -20
-142 -5 -1 5 -1 207 2 447 l5 438 80 17 c64 14 115 17 260 14 99 -2 194 -8
210 -13z m546 8 c31 -5 75 -15 98 -21 l41 -11 0 -443 c0 -415 -1 -444 -18
-448 -9 -3 -55 3 -102 13 -106 22 -291 24 -375 4 -33 -8 -68 -14 -77 -15 -17
0 -18 28 -18 449 0 304 3 452 11 456 36 23 334 33 440 16z m209 -573 l0 -461
-47 7 c-142 20 -210 25 -323 25 -154 -1 -229 -10 -241 -32 -20 -34 -42 -47
-80 -47 -33 0 -46 6 -73 36 l-32 35 -150 6 c-133 5 -222 -1 -396 -24 l-38 -5
0 461 c0 287 4 461 10 461 5 0 10 -159 12 -415 3 -413 3 -415 25 -437 l23 -22
88 17 c118 23 328 23 445 0 81 -15 93 -15 175 0 110 22 330 22 427 2 85 -18
117 -19 133 -3 9 9 12 117 12 424 0 227 3 419 6 428 19 50 24 -38 24 -456z"/>
<path d="M4575 1851 c-33 -4 -67 -10 -75 -13 -8 -4 -27 -9 -42 -12 -21 -5 -28
-12 -28 -31 0 -34 13 -38 65 -20 64 21 311 21 362 0 45 -19 63 -13 63 19 0 21
-8 27 -54 40 -65 19 -207 27 -291 17z"/>
<path d="M4473 1682 c-33 -13 -43 -22 -43 -39 0 -31 10 -34 66 -16 72 22 305
22 358 0 29 -13 42 -14 52 -6 27 22 16 46 -29 63 -60 22 -342 21 -404 -2z"/>
<path d="M4570 1551 c-90 -12 -140 -30 -140 -49 0 -34 19 -41 64 -25 64 23
319 22 369 -2 41 -19 56 -12 57 26 0 38 -213 68 -350 50z"/>
<path d="M4565 1401 c-95 -10 -137 -27 -133 -55 3 -24 13 -25 133 -6 92 14
250 7 300 -14 36 -15 55 -7 55 24 0 42 -185 68 -355 51z"/>
<path d="M4550 1250 c-95 -15 -115 -24 -115 -51 0 -27 -10 -26 145 -10 110 12
242 5 284 -15 22 -11 32 -11 43 -2 25 20 11 49 -32 64 -49 17 -249 26 -325 14z"/>
<path d="M5215 1850 c-70 -9 -137 -31 -142 -45 -2 -6 3 -19 10 -30 14 -17 16
-18 56 -2 57 23 314 24 368 2 44 -19 63 -13 63 18 0 19 -9 26 -55 40 -65 20
-216 29 -300 17z"/>
<path d="M5121 1682 c-50 -19 -57 -30 -38 -57 14 -18 15 -18 58 0 59 24 303
26 365 2 31 -11 45 -12 53 -4 23 23 11 42 -38 60 -69 24 -336 24 -400 -1z"/>
<path d="M5210 1550 c-67 -10 -132 -31 -137 -45 -2 -6 3 -19 11 -30 13 -18 15
-18 51 -1 31 15 65 18 184 19 97 0 158 -4 182 -13 43 -15 69 -8 69 19 0 15
-13 23 -56 36 -65 19 -226 27 -304 15z"/>
<path d="M5210 1401 c-68 -7 -140 -31 -140 -48 0 -4 7 -14 15 -23 14 -16 20
-16 55 -4 61 21 214 28 300 14 112 -19 125 -18 128 6 2 17 -6 24 -40 37 -51
18 -213 28 -318 18z"/>
<path d="M5195 1250 c-117 -20 -143 -37 -109 -71 18 -18 23 -18 50 -5 40 19
202 27 299 15 130 -16 130 -16 133 7 3 18 -6 25 -45 39 -56 19 -250 28 -328
15z"/>
<path d="M1086 1790 c-70 -34 -101 -69 -116 -131 -23 -93 24 -173 122 -210 38
-15 106 -31 193 -47 16 -3 42 -14 57 -25 24 -18 28 -28 28 -66 -1 -28 -7 -54
-18 -66 -24 -29 -94 -55 -146 -55 -52 0 -142 27 -175 52 -44 33 -100 14 -84
-28 9 -24 43 -53 63 -54 9 0 26 -8 40 -17 19 -14 48 -17 145 -17 l120 -1 52
35 c87 59 118 153 73 225 -34 56 -100 90 -203 106 -32 5 -67 13 -77 19 -10 5
-28 10 -38 10 -26 0 -82 64 -82 95 0 13 15 43 33 66 26 35 41 45 77 52 52 11
165 0 183 -16 22 -22 66 -47 81 -47 18 0 30 34 22 63 -5 22 -12 26 -111 67
-75 30 -164 27 -239 -10z"/>
<path d="M1807 1802 c-9 -10 -17 -24 -17 -31 0 -7 -6 -25 -13 -39 -8 -15 -21
-43 -29 -62 -32 -72 -80 -176 -94 -203 -8 -16 -14 -33 -14 -38 0 -10 -44 -109
-91 -204 -32 -67 -36 -93 -14 -101 24 -9 65 5 71 24 3 9 12 30 20 45 7 16 14
36 14 45 0 9 9 28 19 41 18 24 21 24 187 24 l169 0 22 -44 c12 -24 22 -51 22
-59 1 -8 10 -30 21 -47 20 -34 55 -44 77 -22 13 13 -1 75 -23 100 -8 8 -14 20
-14 25 0 5 -13 36 -29 69 -16 33 -39 85 -51 115 -20 49 -36 86 -88 200 -8 19
-22 51 -30 70 -35 82 -51 105 -74 108 -14 2 -31 -5 -41 -16z m57 -134 c8 -18
22 -53 31 -78 21 -55 45 -110 56 -130 11 -20 39 -81 39 -86 0 -2 -65 -4 -145
-4 -137 0 -145 1 -145 19 0 11 4 22 9 25 5 4 19 27 31 54 11 26 28 60 35 75 8
16 15 36 15 45 0 9 7 26 15 36 8 11 15 29 15 41 0 45 25 47 44 3z"/>
<path d="M3112 1810 c-134 -4 -175 -8 -182 -19 -9 -15 -9 -645 0 -655 10 -10
411 -9 422 2 5 5 8 20 6 33 l-3 24 -172 0 c-94 0 -174 2 -176 5 -8 8 -11 215
-4 227 4 6 58 8 157 5 135 -4 152 -3 170 13 27 24 25 39 -6 60 -17 11 -37 15
-58 11 -46 -8 -255 -10 -262 -3 -8 8 -7 207 1 215 3 3 82 5 175 3 l169 -3 6
25 c10 37 -10 67 -43 65 -15 -1 -105 -5 -200 -8z"/>
<path d="M6062 1808 c-9 -9 -12 -99 -12 -345 l0 -333 27 -6 c55 -14 58 -4 56
192 -1 99 -5 212 -8 252 l-6 73 26 -17 c14 -9 25 -21 25 -28 0 -11 58 -127
145 -291 33 -63 48 -81 67 -83 21 -3 29 7 61 70 21 40 42 81 47 91 6 9 14 25
20 35 23 43 80 164 80 171 0 13 48 53 53 44 2 -4 1 -34 -3 -65 -5 -32 -10
-141 -11 -243 -4 -202 -2 -208 51 -203 l25 3 0 339 c0 312 -1 340 -17 350 -28
17 -49 -3 -96 -95 -24 -46 -58 -111 -77 -144 -40 -73 -100 -193 -109 -218 -7
-21 -35 -19 -47 3 -4 8 -24 49 -44 90 -21 41 -52 102 -71 135 -18 33 -38 69
-44 80 -5 11 -14 27 -19 35 -4 8 -16 31 -26 50 -34 67 -65 86 -93 58z"/>
<path d="M7119 1810 c-8 -5 -24 -28 -33 -52 -10 -24 -22 -50 -27 -58 -5 -8
-12 -22 -15 -30 -3 -8 -12 -31 -21 -50 -8 -19 -21 -50 -29 -67 -8 -18 -21 -49
-29 -68 -9 -19 -22 -49 -30 -67 -15 -37 -67 -151 -97 -216 -25 -54 -21 -76 16
-80 33 -4 65 27 66 64 0 11 7 29 15 40 8 10 15 26 15 35 0 37 26 42 191 42
172 -1 190 -6 202 -56 10 -39 32 -94 46 -111 16 -19 70 -22 72 -3 3 29 -12 74
-43 127 -4 8 -11 22 -14 30 -3 8 -13 31 -22 50 -8 19 -21 49 -28 65 -6 17 -20
48 -30 70 -9 22 -23 54 -30 70 -12 29 -60 135 -93 205 -30 66 -49 80 -82 60z
m56 -167 c10 -32 24 -69 30 -83 7 -14 20 -43 30 -65 9 -22 24 -52 31 -67 30
-57 27 -58 -127 -58 l-141 0 7 28 c3 15 13 34 21 43 8 8 14 21 14 28 0 7 6 25
13 39 8 15 21 42 30 60 9 19 17 40 17 47 0 23 33 85 45 85 6 0 19 -26 30 -57z"/>
<path d="M7675 1795 c-27 -14 -67 -44 -87 -67 -36 -41 -38 -46 -38 -114 0 -68
2 -73 35 -107 39 -40 113 -77 155 -77 15 0 47 -7 70 -15 23 -8 52 -15 64 -15
26 0 74 -43 82 -74 3 -13 -1 -39 -9 -59 -38 -89 -224 -102 -339 -23 -37 24
-78 15 -78 -18 0 -27 8 -35 75 -71 46 -26 59 -28 170 -29 103 -1 125 2 155 19
84 49 122 126 104 208 -8 36 -34 76 -49 77 -6 0 -16 5 -23 12 -16 16 -78 38
-137 49 -157 28 -201 59 -192 138 4 34 13 52 35 72 58 52 200 50 274 -4 44
-31 60 -30 82 7 9 15 5 23 -26 48 -84 69 -230 88 -323 43z"/>
<path d="M2288 1799 c-17 -9 -18 -36 -18 -327 0 -234 3 -321 12 -330 8 -8 64
-12 185 -12 154 0 178 2 211 20 76 40 102 82 102 164 0 73 -29 122 -87 146
-31 13 -29 21 16 51 29 21 41 37 50 73 24 97 -29 188 -126 213 -58 15 -321 17
-345 2z m354 -86 c26 -24 48 -66 48 -94 0 -38 -41 -88 -80 -98 -61 -16 -248
-21 -252 -8 -3 9 -2 176 1 221 1 5 57 7 132 3 107 -5 135 -9 151 -24z m-91
-283 c77 0 89 -3 115 -25 26 -22 29 -31 29 -86 0 -54 -3 -64 -28 -85 -40 -34
-94 -45 -209 -42 l-102 3 -1 115 c0 63 1 119 3 124 3 5 28 6 56 2 28 -3 90 -6
137 -6z"/>
<path d="M3491 1796 c-9 -10 -12 -106 -13 -336 -1 -348 -2 -343 52 -338 l25 3
3 140 c1 77 6 143 10 147 14 14 191 -8 211 -26 9 -9 35 -50 56 -91 21 -42 42
-78 47 -81 4 -3 8 -12 8 -21 0 -31 40 -73 70 -73 16 0 32 5 36 11 7 13 -15 89
-27 89 -4 0 -12 12 -18 28 -21 52 -69 127 -96 148 l-27 21 37 22 c20 11 38 21
41 21 2 0 12 8 22 18 77 82 67 218 -20 284 -49 37 -111 48 -266 48 -108 0
-142 -3 -151 -14z m253 -66 c76 0 83 -2 114 -31 29 -27 32 -35 32 -89 0 -105
-41 -128 -227 -129 l-103 -1 0 124 c0 67 3 126 8 130 4 4 27 5 51 2 24 -3 80
-6 125 -6z"/>
</g>
</svg>
