<?xml version="1.0" standalone="no"?>
<!DOCTYPE svg PUBLIC "-//W3C//DTD SVG 20010904//EN"
 "http://www.w3.org/TR/2001/REC-SVG-20010904/DTD/svg10.dtd">
<svg version="1.0" xmlns="http://www.w3.org/2000/svg"
 width="900.000000pt" height="300.000000pt" viewBox="0 0 900.000000 300.000000"
 preserveAspectRatio="xMidYMid meet">
<metadata>
Created by potrace 1.10, written by Peter Selinger 2001-2011
</metadata>
<g transform="translate(0.000000,300.000000) scale(0.100000,-0.100000)"
fill="#000000" stroke="none">
<path d="M3775 2614 c-192 -33 -243 -56 -245 -109 0 -13 -14 -26 -40 -38 -73
-34 -70 -2 -70 -712 0 -435 3 -643 11 -656 24 -46 47 -59 105 -59 30 0 64 5
74 10 54 29 396 47 552 29 111 -12 121 -15 137 -38 29 -45 50 -61 97 -71 93
-21 190 13 214 75 7 19 19 23 92 31 175 19 516 4 592 -25 15 -6 51 -12 78 -13
41 0 54 4 79 28 l29 28 -2 665 -3 665 -48 36 c-26 20 -56 52 -65 71 -14 28
-27 37 -72 50 -174 51 -492 65 -690 30 -58 -10 -113 -22 -123 -26 -10 -4 -35
-3 -55 3 -150 42 -474 55 -647 26z m490 -73 c55 -6 113 -14 128 -20 l27 -11 0
-626 0 -626 -32 6 c-75 14 -278 36 -338 36 -103 0 -311 -21 -353 -36 -53 -20
-95 -18 -100 4 -9 31 -6 1208 3 1222 12 19 100 38 235 50 61 6 117 12 125 15
19 5 172 -2 305 -14z m744 8 c118 -11 254 -34 281 -48 13 -7 15 -88 16 -625 2
-690 8 -640 -70 -617 -56 16 -275 40 -366 40 -95 0 -307 -23 -341 -37 -15 -6
-30 -8 -33 -5 -3 4 -6 287 -6 629 0 606 1 624 19 634 11 5 77 15 148 20 70 6
133 13 138 15 19 7 99 5 214 -6z m-1479 -718 c0 -505 1 -566 16 -598 24 -49
49 -55 147 -37 173 33 552 36 647 4 53 -17 167 -15 244 4 99 25 455 26 575 1
106 -21 176 -24 193 -7 10 10 14 137 18 605 5 584 5 592 25 592 20 0 20 -8 23
-627 2 -625 2 -628 -19 -649 -13 -13 -26 -18 -37 -13 -9 3 -37 10 -62 15 -25
4 -74 13 -110 19 -114 21 -392 24 -509 6 -106 -16 -131 -27 -131 -54 0 -35
-31 -52 -96 -52 -55 0 -65 3 -83 26 -11 14 -23 33 -26 43 -8 26 -104 42 -292
48 -160 5 -286 -5 -471 -39 -49 -9 -65 -9 -75 1 -17 17 -24 1240 -7 1272 8 13
15 18 21 12 6 -6 9 -234 9 -572z"/>
<path d="M3820 2373 c-41 -8 -85 -17 -96 -19 -12 -2 -32 -12 -44 -22 -19 -16
-21 -22 -11 -40 14 -27 48 -28 111 -5 69 25 396 25 462 0 65 -25 102 -20 106
15 3 22 -3 29 -30 41 -104 44 -347 59 -498 30z"/>
<path d="M3815 2165 c-22 -7 -54 -14 -72 -14 -18 -1 -44 -11 -59 -24 -23 -20
-25 -26 -15 -45 12 -23 59 -30 77 -12 11 11 121 28 234 37 80 5 276 -19 294
-37 5 -5 23 -10 38 -10 21 0 29 6 34 26 9 36 -11 52 -87 71 -88 21 -388 27
-444 8z"/>
<path d="M3905 1968 c-139 -10 -215 -29 -233 -57 -14 -20 -13 -24 6 -43 19
-19 24 -20 49 -8 63 30 276 53 371 40 132 -18 173 -27 184 -38 34 -34 82 13
59 57 -7 12 -21 21 -35 21 -12 0 -45 6 -72 14 -63 18 -202 24 -329 14z"/>
<path d="M3860 1761 c-159 -19 -214 -46 -189 -92 9 -17 16 -20 42 -14 248 56
345 59 532 13 64 -15 87 -14 99 5 18 28 -4 49 -75 68 -73 21 -305 32 -409 20z"/>
<path d="M3845 1554 c-22 -2 -68 -12 -103 -21 -74 -19 -96 -44 -65 -74 19 -20
24 -19 131 12 20 6 100 13 177 16 122 5 152 3 223 -16 123 -32 151 -27 138 23
-10 39 -102 58 -296 61 -91 2 -183 1 -205 -1z"/>
<path d="M4710 2373 c-41 -8 -85 -17 -96 -19 -38 -7 -67 -38 -60 -62 9 -27 51
-29 116 -5 69 25 397 25 462 0 65 -25 102 -20 106 15 3 23 -2 30 -30 42 -104
44 -348 58 -498 29z"/>
<path d="M4705 2165 c-22 -8 -53 -14 -68 -14 -37 -1 -87 -31 -87 -51 0 -9 5
-21 12 -28 15 -15 60 -16 74 -2 10 10 103 25 223 37 74 7 252 -13 298 -34 48
-22 78 -14 78 20 0 35 -23 48 -120 71 -87 20 -349 21 -410 1z"/>
<path d="M4795 1968 c-206 -15 -283 -51 -225 -103 18 -16 24 -17 48 -5 49 24
277 54 342 45 108 -14 177 -28 208 -43 39 -19 65 -8 70 28 5 32 -4 38 -93 59
-96 23 -215 30 -350 19z"/>
<path d="M4765 1764 c-69 -6 -176 -34 -197 -52 -41 -35 -2 -69 60 -53 192 50
407 49 544 -1 40 -15 70 -2 66 29 -3 29 -12 35 -85 57 -52 16 -287 28 -388 20z"/>
<path d="M4735 1554 c-52 -5 -157 -33 -172 -46 -20 -16 -15 -44 9 -55 22 -10
40 -7 126 18 20 6 99 13 174 16 118 5 150 3 231 -17 115 -27 132 -25 132 14 0
26 -5 31 -55 48 -43 14 -92 19 -230 22 -96 2 -193 2 -215 0z"/>
<path d="M5652 707 c-23 -27 -62 -108 -62 -128 0 -24 30 -25 50 -1 46 56 61
85 58 110 -3 30 -29 40 -46 19z"/>
<path d="M3005 663 c-74 -38 -107 -104 -86 -173 17 -56 69 -86 196 -109 63
-12 85 -30 85 -72 0 -29 -6 -41 -27 -54 -53 -35 -104 -31 -221 16 -31 13 -35
12 -48 -6 -13 -17 -12 -21 8 -40 32 -28 117 -55 175 -55 56 0 116 25 153 65
33 35 35 120 3 152 -31 31 -71 49 -123 57 -80 12 -123 31 -133 60 -13 40 -1
72 37 95 44 28 91 26 148 -4 55 -29 61 -30 83 -9 15 15 14 18 -6 40 -12 13
-34 26 -50 29 -16 4 -31 11 -34 16 -10 14 -127 8 -160 -8z"/>
<path d="M3706 672 c-3 -5 -1 -399 3 -489 1 -19 22 -16 47 8 l23 21 29 -21
c56 -39 133 -21 184 44 20 26 23 41 23 115 0 74 -3 89 -23 115 -51 65 -128 83
-183 44 -16 -11 -33 -18 -37 -15 -5 3 -7 39 -4 81 3 51 1 79 -8 90 -13 16 -46
20 -54 7z m224 -227 c21 -22 24 -36 24 -96 0 -64 -2 -72 -28 -94 -40 -34 -96
-34 -131 0 -22 23 -25 34 -25 98 0 65 2 73 27 94 38 33 101 32 133 -2z"/>
<path d="M4600 533 c-8 -3 -27 -17 -42 -31 l-27 -25 -11 27 c-7 20 -16 27 -33
24 -22 -3 -22 -4 -22 -178 l0 -175 27 -3 c35 -4 40 13 36 137 -3 93 -2 101 21
125 14 14 35 26 48 26 37 0 63 18 63 44 0 30 -24 42 -60 29z"/>
<path d="M3392 516 c-43 -16 -55 -30 -47 -55 7 -24 32 -27 59 -6 11 8 41 15
67 15 52 0 79 -23 79 -67 0 -22 -4 -23 -69 -23 -82 0 -132 -23 -152 -71 -11
-27 -10 -36 6 -65 39 -72 121 -94 181 -49 l33 26 7 -26 c7 -30 29 -33 44 -6
14 27 13 214 -2 262 -20 70 -113 99 -206 65z m154 -191 c8 -21 -15 -74 -37
-85 -28 -15 -81 -12 -101 7 -31 28 -23 59 20 76 49 21 111 22 118 2z"/>
<path d="M4170 513 c-53 -35 -69 -57 -81 -109 -30 -132 42 -234 164 -234 62 0
127 33 127 65 0 19 -5 25 -22 25 -13 0 -32 -7 -42 -15 -27 -21 -106 -19 -132
3 -28 24 -47 60 -40 78 5 12 22 14 104 8 110 -7 142 2 142 40 0 43 -23 91 -59
123 -31 28 -43 33 -86 32 -29 0 -61 -7 -75 -16z m137 -65 c13 -12 23 -32 23
-45 0 -22 -2 -23 -95 -23 -106 0 -110 4 -69 57 22 29 31 33 71 33 34 0 53 -6
70 -22z"/>
<path d="M4884 517 c-2 -7 -3 -87 -2 -177 l3 -165 24 -3 c13 -2 28 2 32 10 5
7 9 62 9 121 0 94 3 113 21 138 16 23 28 29 58 29 20 0 42 -5 49 -12 8 -8 12
-53 12 -138 0 -129 6 -150 41 -150 25 0 29 20 29 139 0 101 2 110 25 135 27
30 84 36 105 11 8 -9 11 -53 11 -130 -1 -126 7 -158 42 -153 21 3 22 6 22 152
l0 148 -35 29 c-45 38 -100 39 -146 4 -18 -14 -37 -25 -42 -25 -4 0 -19 11
-32 25 -33 35 -97 35 -130 0 l-24 -26 -13 26 c-14 26 -50 34 -59 12z"/>
<path d="M5508 513 c-29 -12 -38 -22 -38 -39 0 -33 16 -38 56 -19 21 10 53 15
81 13 41 -3 48 -6 56 -31 16 -48 5 -57 -68 -57 -95 0 -144 -34 -144 -100 0
-37 18 -64 61 -93 36 -22 75 -22 123 3 l40 20 7 -20 c9 -24 33 -26 42 -4 13
34 6 245 -9 277 -30 63 -122 85 -207 50z m155 -213 c-2 -44 -33 -70 -83 -70
-43 0 -73 27 -68 61 4 28 56 49 113 46 39 -2 40 -3 38 -37z"/>
<path d="M5872 510 c-18 -11 -39 -35 -48 -53 -15 -31 -15 -36 0 -66 18 -33 86
-71 130 -71 53 0 87 -58 47 -80 -29 -15 -104 -12 -127 5 -10 8 -29 15 -41 15
-18 0 -23 -6 -23 -25 0 -53 146 -87 208 -48 49 30 62 50 62 92 0 58 -30 78
-162 106 -32 6 -48 46 -28 70 17 20 95 19 130 -1 33 -20 60 -13 60 15 0 28
-71 61 -129 61 -28 0 -59 -8 -79 -20z"/>
</g>
</svg>
