<?xml version="1.0" standalone="no"?>
<!DOCTYPE svg PUBLIC "-//W3C//DTD SVG 20010904//EN"
 "http://www.w3.org/TR/2001/REC-SVG-20010904/DTD/svg10.dtd">
<svg version="1.0" xmlns="http://www.w3.org/2000/svg"
 width="300.000000pt" height="100.000000pt" viewBox="0 0 300.000000 100.000000"
 preserveAspectRatio="xMidYMid meet">
<metadata>
Created by potrace 1.10, written by Peter Selinger 2001-2011
</metadata>
<g transform="translate(0.000000,100.000000) scale(0.100000,-0.100000)"
fill="#000000" stroke="none">
<path d="M1480 673 c-8 -3 -25 -15 -37 -26 -22 -20 -23 -27 -23 -183 0 -118 3
-163 12 -166 7 -3 35 -1 63 4 55 9 131 2 140 -13 9 -14 48 -11 85 8 28 14 44
15 104 6 46 -7 75 -7 84 0 9 7 12 53 12 166 0 156 0 158 -26 182 -25 23 -30
24 -212 26 -103 0 -194 -1 -202 -4z m164 -19 c14 -5 16 -28 16 -153 l0 -146
-100 0 -100 -1 0 147 c0 145 0 148 23 152 36 7 144 8 161 1z m205 0 l31 -6 0
-147 0 -147 -100 1 -100 0 0 146 c0 80 3 149 7 152 8 9 120 9 162 1z m-177
-318 l217 -1 4 145 3 145 2 -155 2 -155 -91 4 c-61 2 -99 -1 -115 -10 -19 -10
-29 -10 -48 0 -16 9 -54 12 -115 10 l-91 -4 2 155 2 155 6 -144 5 -144 217 -1z"/>
<path d="M1493 613 c-30 -12 -7 -18 67 -18 77 0 98 6 64 19 -18 7 -113 7 -131
-1z"/>
<path d="M1493 564 c-30 -13 -8 -19 67 -19 49 0 79 4 77 10 -4 11 -123 18
-144 9z"/>
<path d="M1493 513 c-30 -12 -7 -18 67 -18 77 0 98 6 64 19 -18 7 -113 7 -131
-1z"/>
<path d="M1493 464 c-30 -13 -8 -19 67 -19 49 0 79 4 77 10 -4 11 -123 18
-144 9z"/>
<path d="M1493 414 c-30 -13 -8 -19 67 -19 49 0 79 4 77 10 -4 11 -123 18
-144 9z"/>
<path d="M1705 610 c-26 -11 -25 -11 73 -13 78 -2 100 4 66 17 -23 9 -116 6
-139 -4z"/>
<path d="M1700 560 c-18 -12 -23 -11 78 -13 78 -2 100 4 66 17 -25 10 -127 7
-144 -4z"/>
<path d="M1705 510 c-25 -11 -27 -10 73 -13 78 -2 101 4 66 17 -23 9 -116 6
-139 -4z"/>
<path d="M1700 460 c-8 -5 -13 -10 -10 -10 46 -5 170 -3 170 1 0 20 -132 27
-160 9z"/>
<path d="M1700 410 c-8 -5 -13 -10 -10 -10 46 -5 170 -3 170 1 0 20 -132 27
-160 9z"/>
<path d="M2394 655 c-22 -34 -8 -47 16 -15 22 28 25 40 10 40 -5 0 -17 -11
-26 -25z"/>
<path d="M362 600 c-12 -5 -27 -21 -32 -36 -15 -38 9 -70 62 -84 67 -17 70
-19 66 -42 -4 -32 -48 -46 -94 -29 -41 15 -58 6 -30 -15 30 -22 112 -18 136 6
37 37 18 84 -38 96 -69 14 -96 40 -72 69 14 17 85 21 95 5 9 -14 25 -12 25 3
0 29 -71 45 -118 27z"/>
<path d="M601 591 c-12 -21 -91 -203 -91 -208 0 -2 6 -3 14 -3 8 0 19 14 25
30 10 29 12 30 70 30 57 0 59 -1 70 -30 5 -16 17 -30 25 -30 11 0 3 28 -34
112 -28 62 -50 113 -50 115 0 11 -21 0 -29 -16z m45 -80 l23 -51 -50 0 c-28 0
-49 4 -47 8 35 83 43 100 46 97 3 -2 15 -27 28 -54z"/>
<path d="M768 604 c-5 -4 -8 -56 -8 -116 l0 -108 63 0 c40 0 70 5 85 16 29 20
30 68 1 87 -19 14 -19 16 -4 25 22 12 23 59 2 80 -17 17 -126 30 -139 16z
m122 -39 c21 -25 3 -55 -35 -55 -18 0 -40 -3 -49 -6 -13 -5 -16 2 -16 35 l0
41 44 0 c26 0 48 -6 56 -15z m8 -113 c5 -35 -15 -52 -64 -52 l-44 0 0 41 0 40
53 -3 c46 -3 52 -6 55 -26z"/>
<path d="M987 603 c-4 -3 -7 -55 -7 -115 l0 -108 70 0 c40 0 70 4 70 10 0 6
-27 10 -60 10 l-60 0 0 40 0 39 55 3 c70 4 72 23 2 24 l-52 1 -3 36 -3 37 60
0 c48 0 61 3 61 15 0 12 -14 15 -63 15 -35 0 -67 -3 -70 -7z"/>
<path d="M1168 604 c-5 -4 -8 -56 -8 -116 0 -89 3 -108 15 -108 11 0 15 12 15
50 0 50 0 50 28 44 48 -10 51 -12 72 -54 11 -22 27 -40 35 -40 13 0 12 7 -5
39 -11 22 -24 42 -29 46 -5 3 1 16 15 30 53 53 18 106 -74 113 -31 2 -60 0
-64 -4z m120 -33 c8 -5 12 -21 10 -37 -3 -27 -6 -29 -55 -32 l-53 -3 0 40 0
41 43 0 c23 0 48 -4 55 -9z"/>
<path d="M2020 496 c0 -100 2 -116 16 -116 14 0 16 12 13 85 -2 47 -3 85 -2
85 1 0 19 -31 39 -70 21 -38 42 -70 46 -70 4 0 24 32 43 70 19 39 37 70 39 70
2 0 1 -38 -2 -85 -4 -74 -3 -85 12 -85 14 0 16 15 16 116 0 84 -3 115 -12 112
-6 -2 -30 -39 -52 -81 -23 -42 -43 -77 -46 -77 -3 0 -23 35 -45 77 -58 111
-65 108 -65 -31z"/>
<path d="M2327 503 c-26 -60 -47 -111 -47 -115 0 -19 21 -5 35 22 14 28 19 30
71 30 53 0 56 -2 67 -30 13 -36 42 -43 31 -8 -15 48 -93 208 -102 208 -4 0
-30 -48 -55 -107z m103 -39 c0 -2 -21 -4 -46 -4 -50 0 -50 -1 -17 79 l15 36
24 -54 c13 -29 24 -55 24 -57z"/>
<path d="M2548 590 c-56 -44 -30 -100 53 -114 42 -7 62 -26 53 -50 -9 -23 -49
-31 -94 -17 -45 13 -50 14 -50 3 0 -15 50 -32 94 -32 49 0 76 22 76 62 0 32
-13 42 -75 60 -46 12 -50 16 -50 43 0 27 3 30 37 33 20 2 46 -2 57 -7 11 -6
22 -7 25 -2 9 14 -20 32 -61 38 -29 4 -44 0 -65 -17z"/>
</g>
</svg>
