<?xml version="1.0" standalone="no"?>
<!DOCTYPE svg PUBLIC "-//W3C//DTD SVG 20010904//EN"
 "http://www.w3.org/TR/2001/REC-SVG-20010904/DTD/svg10.dtd">
<svg version="1.0" xmlns="http://www.w3.org/2000/svg"
 width="900.000000pt" height="300.000000pt" viewBox="0 0 900.000000 300.000000"
 preserveAspectRatio="xMidYMid meet">
<metadata>
Created by potrace 1.10, written by Peter Selinger 2001-2011
</metadata>
<g transform="translate(0.000000,300.000000) scale(0.100000,-0.100000)"
fill="#000000" stroke="none">
<path d="M6050 1984 c-19 -7 -47 -13 -62 -13 -16 -1 -36 -10 -45 -22 -10 -11
-37 -40 -60 -63 l-43 -42 0 -457 c0 -448 0 -458 21 -480 24 -26 64 -27 187 -2
63 13 120 16 226 13 l142 -3 49 -43 c43 -38 53 -42 101 -42 50 0 56 3 94 43
l41 42 182 0 c112 0 195 -4 217 -12 19 -6 56 -14 81 -18 40 -5 51 -2 73 17 15
13 27 34 28 48 1 14 1 224 0 468 l-2 443 -27 16 c-16 9 -40 32 -54 52 -35 50
-103 64 -338 68 -149 3 -192 1 -223 -12 -48 -19 -94 -19 -148 0 -56 20 -387
19 -440 -1z m465 -64 c13 -11 15 -69 15 -441 0 -235 -4 -430 -8 -433 -5 -3
-33 1 -63 9 -76 21 -292 20 -390 -1 -42 -10 -84 -14 -93 -11 -15 6 -16 48 -14
434 l3 427 30 8 c79 22 144 27 317 24 133 -2 192 -7 203 -16z m595 -3 l45 -14
3 -433 2 -432 -57 7 c-31 4 -67 11 -81 16 -38 15 -300 11 -361 -6 -30 -8 -58
-12 -63 -9 -4 3 -8 198 -8 433 0 334 3 431 13 439 19 16 85 20 282 17 121 -2
195 -8 225 -18z m-1171 -911 c12 -14 25 -16 60 -12 238 29 404 29 509 0 47
-13 60 -13 105 0 105 29 287 29 516 -1 73 -9 71 -23 71 430 0 314 3 398 13
395 9 -4 13 -100 14 -429 2 -233 -1 -430 -6 -437 -7 -11 -29 -11 -127 2 -177
23 -200 24 -309 15 -133 -12 -142 -14 -160 -49 -13 -26 -21 -30 -54 -30 -52 0
-71 8 -71 31 0 27 -30 36 -151 47 -101 9 -182 5 -353 -17 -43 -6 -82 -8 -87
-5 -11 6 -12 867 -1 878 4 4 9 -174 12 -397 4 -332 8 -407 19 -421z"/>
<path d="M6120 1823 c-64 -4 -117 -37 -101 -62 8 -12 25 -12 120 3 114 19 134
18 259 -4 64 -12 75 -11 89 2 14 15 13 18 -12 34 -44 29 -172 38 -355 27z"/>
<path d="M6116 1675 c-87 -13 -120 -36 -92 -63 11 -12 23 -11 76 2 80 21 235
21 306 0 41 -12 58 -13 75 -4 l21 12 -21 22 c-16 17 -41 25 -104 34 -98 14
-154 14 -261 -3z"/>
<path d="M6105 1530 c-75 -15 -80 -18 -83 -44 -3 -27 -2 -28 35 -23 21 3 56
10 78 16 22 6 76 11 120 11 44 0 98 -5 120 -11 22 -6 57 -13 78 -16 32 -4 37
-3 37 15 0 27 -11 34 -95 54 -86 21 -185 20 -290 -2z"/>
<path d="M6078 1382 c-54 -13 -58 -16 -58 -43 0 -24 4 -29 23 -29 13 0 29 6
35 13 9 8 59 13 153 15 114 3 149 1 185 -13 52 -20 77 -14 72 17 -7 52 -266
78 -410 40z"/>
<path d="M6160 1254 c-49 -6 -123 -25 -136 -36 -12 -9 -8 -44 6 -53 4 -3 22 2
39 11 42 21 295 23 360 4 40 -13 45 -12 57 5 7 10 11 21 9 26 -18 28 -230 56
-335 43z"/>
<path d="M6740 1822 c-55 -7 -110 -33 -110 -53 0 -20 34 -21 141 -3 98 16 117
16 187 4 108 -19 146 -19 150 2 6 33 -49 48 -186 53 -70 2 -152 0 -182 -3z"/>
<path d="M6775 1679 c-22 -4 -56 -8 -76 -8 -47 -1 -80 -34 -58 -56 12 -13 23
-13 64 -4 87 21 252 22 318 4 62 -17 87 -15 87 8 0 27 -36 44 -115 55 -89 13
-160 14 -220 1z"/>
<path d="M6726 1530 c-65 -13 -81 -20 -87 -38 -14 -37 13 -40 116 -13 52 14
189 14 240 0 22 -6 57 -13 78 -16 31 -4 37 -2 37 13 0 32 -13 40 -95 57 -97
21 -183 20 -289 -3z"/>
<path d="M6698 1382 c-51 -12 -58 -17 -58 -38 0 -31 26 -42 54 -23 34 22 286
26 342 4 51 -19 74 -15 74 14 0 25 -6 29 -75 47 -72 18 -260 16 -337 -4z"/>
<path d="M6790 1254 c-67 -8 -140 -27 -152 -41 -8 -10 -7 -18 6 -32 16 -18 20
-18 54 -4 52 22 302 22 353 0 27 -11 40 -12 48 -4 23 23 11 44 -31 60 -43 17
-209 29 -278 21z"/>
<path d="M5092 1878 c-5 -7 -24 -39 -41 -70 -16 -31 -36 -66 -43 -77 -14 -23
-12 -26 19 -35 18 -6 28 2 60 49 21 31 44 63 51 70 17 19 15 62 -4 69 -23 9
-30 8 -42 -6z"/>
<path d="M1848 1826 c-20 -6 -54 -25 -76 -43 -74 -60 -79 -175 -10 -233 36
-29 112 -60 150 -60 42 0 121 -29 141 -52 20 -23 22 -56 6 -92 -13 -27 -77
-56 -126 -56 -46 0 -141 27 -159 45 -34 33 -93 11 -78 -30 15 -37 144 -85 232
-85 91 0 168 39 203 104 33 62 21 132 -31 174 -24 20 -101 52 -123 52 -40 0
-142 33 -164 53 -33 29 -32 95 1 127 49 45 167 47 244 3 47 -28 72 -25 72 9 0
42 -27 61 -115 84 -59 16 -116 16 -167 0z"/>
<path d="M2693 1823 c-4 -10 -6 -148 -3 -308 l5 -290 25 0 c17 0 26 6 28 20 7
34 20 40 44 18 89 -80 215 -45 269 76 39 88 17 211 -48 273 -57 54 -162 55
-219 3 -15 -14 -30 -22 -35 -19 -5 2 -6 47 -2 98 7 117 1 146 -32 146 -13 0
-28 -8 -32 -17z m271 -262 c12 -11 28 -44 35 -72 37 -142 -76 -254 -184 -183
-79 52 -74 233 8 270 43 19 112 12 141 -15z"/>
<path d="M2340 1646 c-74 -15 -100 -31 -100 -62 0 -32 25 -41 59 -21 32 19
112 31 146 23 26 -7 55 -51 55 -85 0 -24 -14 -28 -127 -34 -95 -6 -125 -22
-144 -79 -17 -52 4 -104 56 -140 56 -38 113 -38 170 1 l44 29 6 -29 c4 -18 13
-29 24 -29 36 0 41 20 41 172 0 155 -6 184 -49 227 -16 16 -96 43 -118 40 -4
-1 -33 -6 -63 -13z m149 -225 c24 -15 -4 -92 -43 -119 -64 -44 -146 -14 -146
53 0 40 21 56 90 66 67 10 84 10 99 0z"/>
<path d="M3293 1649 c-106 -25 -168 -160 -130 -286 25 -83 106 -143 195 -143
73 0 172 46 172 80 0 5 -9 14 -20 20 -15 8 -29 6 -62 -11 -64 -33 -128 -31
-175 7 -34 28 -63 88 -48 102 3 3 64 5 135 3 71 -1 139 0 150 4 49 16 5 156
-63 202 -39 26 -98 34 -154 22z m106 -63 c35 -18 61 -57 61 -91 l0 -25 -115 0
-115 0 0 28 c0 49 59 99 118 101 13 1 36 -6 51 -13z"/>
<path d="M3775 1648 c-16 -6 -41 -22 -55 -35 l-25 -23 -8 31 c-7 26 -12 30
-35 27 l-27 -3 -3 -199 c-3 -206 1 -226 39 -226 34 0 42 36 36 151 -5 83 -3
116 8 143 18 42 50 66 88 66 56 0 90 36 61 65 -18 17 -37 18 -79 3z"/>
<path d="M4296 1650 c-15 -5 -37 -17 -47 -26 -18 -17 -20 -16 -40 4 -21 23
-54 29 -64 11 -12 -18 -12 -382 -1 -401 12 -21 46 -24 64 -6 8 8 12 58 12 158
0 140 1 147 23 168 46 44 141 36 152 -12 3 -11 6 -88 8 -171 l2 -150 27 -3
c43 -5 51 24 43 143 -11 165 16 220 106 220 78 0 96 -44 84 -209 -4 -51 -4
-107 0 -125 6 -26 11 -31 36 -31 35 0 33 -13 29 195 -2 150 -3 162 -26 191
-44 60 -174 64 -211 8 -20 -30 -38 -30 -58 0 -10 15 -33 28 -60 35 -24 6 -45
11 -47 10 -2 0 -16 -5 -32 -9z"/>
<path d="M5399 1648 c-20 -5 -51 -22 -69 -36 -29 -25 -32 -33 -32 -81 0 -40 5
-58 20 -74 21 -21 120 -57 157 -57 32 0 65 -28 65 -55 0 -32 -44 -65 -87 -65
-19 0 -56 10 -83 21 -31 13 -59 19 -75 15 -77 -19 44 -96 152 -96 88 0 153 47
161 116 8 72 -39 115 -138 129 -117 15 -148 92 -51 124 28 9 44 8 83 -5 26 -8
50 -20 53 -25 11 -17 44 -9 50 12 10 31 -30 64 -94 78 -59 13 -63 12 -112 -1z"/>
<path d="M4930 1644 c-14 -3 -39 -16 -55 -29 l-30 -24 22 -23 c22 -22 24 -22
52 -5 34 20 109 32 143 24 31 -8 62 -61 54 -93 -6 -22 -11 -24 -74 -24 -141 0
-191 -26 -199 -101 -5 -55 11 -85 62 -121 57 -39 118 -39 168 3 30 25 38 28
42 15 3 -9 7 -23 10 -32 3 -9 14 -14 27 -12 23 3 23 5 26 174 l2 170 -33 39
c-33 38 -34 38 -113 41 -43 1 -90 0 -104 -2z m189 -239 c9 -49 -66 -125 -125
-125 -35 0 -84 45 -84 77 0 41 79 73 170 69 26 -1 36 -6 39 -21z"/>
</g>
</svg>
